<svg id="圖層_2" data-name="圖層 2" xmlns="http://www.w3.org/2000/svg" viewBox="0 0 10.3 10.87"><defs><style>.cls-1{fill:#ba9bc9;}</style></defs><path class="cls-1" d="M87.46,219.8c1.52,0,3-.05,4.27,0a2,2,0,0,1,1.49.39c.55.55.45,1.52.45,2.34a5.93,5.93,0,0,1-.08,1.4,2.32,2.32,0,0,1-1.27,1.46,5.72,5.72,0,0,1-1.83.45,6.92,6.92,0,0,1,.15,2.93c-.22,1-1,1.82-1.87,1.73,0-1.74,0-3.69-1.1-4.9a23.09,23.09,0,0,0,.07-2.82A22.1,22.1,0,0,0,87.46,219.8Z" transform="translate(-83.37 -219.59)"/><path class="cls-1" d="M87,222.68c0-1-.1-1.9-.19-2.72a.38.38,0,0,0-.34-.37H83.89a.53.53,0,0,0-.52.53v5a.52.52,0,0,0,.52.52h2.72a.38.38,0,0,0,.34-.39C87,224.47,87,223.61,87,222.68Z" transform="translate(-83.37 -219.59)"/></svg>