<svg xmlns="http://www.w3.org/2000/svg" xmlns:xlink="http://www.w3.org/1999/xlink" xml:space="preserve" version="1.1" x="0" y="0" viewBox="0 0 153.6 76.8" style="width: 1280px; height: 640px;">
    <style type="text/css">
    .st1{fill:#8242B5;}
    .st2{fill:none;}
    .st3{fill:#8242B5;stroke:#FFF;stroke-width:0.15;}
    @media (prefers-color-scheme: dark) { .st3{stroke:#000;} }
</style>
    <g id="圖層_2">
        <path class="st1" d="M123.81,41.37c0,0,3.92-5.37-6.85-6.27c-0.27-0.09,0.48-0.69,0.48-0.69l0,0h0c-3.71,0.37-3.57,2.83-3.5,3.35   c0.06,0,0.12-0.01,0.18-0.01c1.04,0,1.93,0.2,2.67,0.61c0.39,0.21,0.73,0.48,1.02,0.78c0.68,0.64,1.23,1.6,1.41,3.03   c0.58,4.75,3.17,9.91,9.11,2.15C128.34,44.32,124.78,46.16,123.81,41.37z"/>
        <g>
            <path class="st1" d="M37.86,41.81c0,2.09-0.48,3.64-1.43,4.66C35.47,47.49,34,48,32.01,48c-1.85,0-3.26-0.51-4.22-1.52    s-1.44-2.54-1.44-4.59v-7.15h3.94v7.3c0,0.84,0.16,1.48,0.47,1.93s0.76,0.68,1.34,0.68c0.59,0,1.03-0.21,1.34-0.64    c0.31-0.42,0.46-1.05,0.46-1.88v-7.39h3.95V41.81z"/>
            <path class="st1" d="M45.95,47.77v-5.08c0-0.58-0.09-0.99-0.26-1.24c-0.17-0.25-0.45-0.38-0.84-0.38c-0.33,0-0.59,0.13-0.78,0.39    s-0.28,0.59-0.28,1v5.31h-3.87v-9.31h3.87v1.45h0.04c0.31-0.53,0.72-0.95,1.25-1.24c0.52-0.29,1.09-0.44,1.7-0.44    c2.04,0,3.05,1.29,3.05,3.85v5.68H45.95z"/>
            <path class="st1" d="M55.67,35.95c0,0.55-0.2,0.99-0.6,1.33s-0.92,0.51-1.57,0.51c-0.63,0-1.15-0.18-1.55-0.53    c-0.4-0.35-0.6-0.79-0.6-1.31c0-0.53,0.2-0.96,0.59-1.3c0.39-0.33,0.91-0.5,1.57-0.5c0.65,0,1.17,0.17,1.57,0.5    C55.47,34.99,55.67,35.42,55.67,35.95z M51.57,47.77v-9.31h3.87v9.31H51.57z"/>
            <path class="st1" d="M67.36,47.41C66.28,47.8,65.04,48,63.62,48c-1.39,0-2.58-0.27-3.59-0.8s-1.77-1.28-2.3-2.26    s-0.8-2.11-0.8-3.39c0-1.38,0.3-2.6,0.89-3.67c0.59-1.07,1.43-1.9,2.52-2.49c1.08-0.58,2.33-0.88,3.74-0.88    c1.13,0,2.22,0.14,3.27,0.41v3.63c-0.36-0.22-0.8-0.39-1.3-0.51s-1.01-0.18-1.53-0.18c-1.07,0-1.91,0.31-2.52,0.92    c-0.61,0.61-0.92,1.44-0.92,2.49c0,1.04,0.31,1.86,0.92,2.47c0.62,0.6,1.44,0.9,2.47,0.9c0.95,0,1.91-0.24,2.88-0.73V47.41z"/>
            <path class="st1" d="M79.38,42.95c0,1.57-0.47,2.8-1.42,3.7c-0.95,0.9-2.27,1.35-3.98,1.35c-1.69,0-3.01-0.44-3.95-1.31    c-0.94-0.88-1.41-2.08-1.41-3.62c0-0.99,0.22-1.84,0.66-2.57c0.44-0.73,1.07-1.28,1.89-1.67c0.82-0.39,1.76-0.58,2.83-0.58    c1.1,0,2.06,0.2,2.87,0.61c0.81,0.41,1.43,0.97,1.86,1.69C79.17,41.25,79.38,42.06,79.38,42.95z M75.46,42.97    c0-1.27-0.48-1.9-1.45-1.9c-0.97,0-1.45,0.66-1.45,1.99c0,1.4,0.49,2.1,1.47,2.1C74.98,45.16,75.46,44.43,75.46,42.97z"/>
            <path class="st1" d="M86.75,47.77v-1.44h-0.04c-0.32,0.44-0.61,0.77-0.87,0.97c-0.26,0.21-0.55,0.37-0.87,0.5    c-0.32,0.13-0.7,0.19-1.13,0.19c-1.02,0-1.79-0.33-2.33-0.99c-0.53-0.66-0.8-1.64-0.8-2.93v-5.62h3.87v5.33    c0,0.92,0.34,1.37,1.03,1.37c0.38,0,0.66-0.12,0.85-0.37c0.19-0.25,0.29-0.6,0.29-1.05v-5.27h3.87v9.31H86.75z"/>
            <path class="st1" d="M99.48,41.78c-0.15-0.07-0.34-0.13-0.59-0.18c-0.25-0.05-0.46-0.08-0.62-0.08c-1.28,0-1.92,0.74-1.92,2.22    v4.04h-3.87v-9.31h3.87v1.64h0.04c0.24-0.59,0.57-1.03,1.01-1.34c0.44-0.31,0.95-0.46,1.53-0.46c0.21,0,0.4,0.04,0.55,0.11V41.78z    "/>
            <path class="st1" d="M108.16,44.68c0,1.05-0.4,1.87-1.2,2.45c-0.8,0.58-1.92,0.87-3.36,0.87c-0.42,0-0.94-0.04-1.55-0.13    c-0.62-0.08-1.12-0.19-1.5-0.31v-2.72c1.15,0.51,2.1,0.76,2.87,0.76c0.76,0,1.14-0.2,1.14-0.59c0-0.16-0.09-0.3-0.26-0.4    c-0.18-0.11-0.64-0.28-1.38-0.53c-0.82-0.26-1.42-0.61-1.8-1.04c-0.38-0.43-0.56-0.99-0.56-1.68c0-0.96,0.38-1.73,1.15-2.29    s1.84-0.84,3.23-0.84c0.81,0,1.67,0.12,2.58,0.35v2.61c-0.38-0.16-0.8-0.3-1.25-0.41c-0.45-0.11-0.84-0.16-1.14-0.16    c-0.25,0-0.46,0.04-0.61,0.13s-0.23,0.2-0.23,0.35c0,0.18,0.08,0.32,0.25,0.43c0.16,0.11,0.49,0.24,0.98,0.39    c0.95,0.28,1.63,0.64,2.04,1.07S108.16,43.99,108.16,44.68z"/>
            <path class="st1" d="M112.92,44.21c0.07,0.4,0.3,0.71,0.69,0.94c0.39,0.23,0.92,0.34,1.56,0.34c0.9,0,1.76-0.17,2.56-0.52v2.45    c-0.94,0.38-2.08,0.56-3.42,0.56c-1.62,0-2.89-0.42-3.79-1.25c-0.9-0.83-1.35-1.97-1.35-3.43c0-1,0.2-1.88,0.6-2.64    c0.4-0.76,0.98-1.36,1.76-1.79c0.78-0.43,1.64-0.65,2.58-0.65c0.96,0,1.79,0.19,2.47,0.56c0.68,0.38,1.2,0.9,1.56,1.58    c0.35,0.68,0.53,1.47,0.53,2.38v1.45H112.92z M115.25,42.19c0-1.07-0.39-1.61-1.15-1.61c-0.32,0-0.59,0.15-0.81,0.44    c-0.22,0.29-0.34,0.68-0.38,1.17H115.25z"/>
        </g>
        <g>
            <rect x="27.17" y="32.74" class="st2" width="78.02" height="1.99"/>
        </g>
        <g id="圖層_6">
            <rect x="50.23" y="35.25" transform="matrix(0.9686 0.2487 -0.2487 0.9686 10.5993 -11.3787)" class="st1" width="0.2" height="2"/>
            <polygon class="st1" points="49.96,38 49.62,37.91 49.96,37.33 50.12,37.38   "/>
        </g>
        <polygon class="st3" points="56.86,35.19 53.68,37.06 50.23,35.33 53.41,33.46  "/>
        <g>
            <path class="st1" d="M30.17,28.32c0,0,1.48,1.25,0.86,4.38c-0.61,3.07-0.38,5.53-0.38,5.53s2.7-8.85-0.58-10.29"/>
            <path class="st1" d="M30.1,28.51c1.19,1.58,0.82,3.87,0.63,4.71s-0.46,2.71-0.46,2.71l-3.89-1.19c1.38-0.9,1.62-2.89,1.62-2.89    c-0.08,0.02-0.19,0.04-0.33,0.05c-0.13,0.01-0.22,0-0.31,0c0,0-0.14-0.02-0.56,0c-0.87,0.06-1.21,0.44-1.21,0.44    c-0.98-0.52-1.08-1.27-1.08-1.27s0.91-0.34,1.33-1.21c0.41-0.87,1.52-1.46,1.52-1.46l-1.6-3.54c0.84,1.1,1.68,2.21,2.52,3.31    c0.15-0.06,0.5-0.16,0.93-0.08C29.67,28.16,29.98,28.4,30.1,28.51z"/>
            <path class="st1" d="M28.71,28.47l0-1.11c0,0,0,0,0,0c0.67,0,1.23,0.5,1.23,1.11H28.71z"/>
        </g>
    </g>
</svg>