<svg xmlns="http://www.w3.org/2000/svg" viewBox="0 0 434.64 349.99"><defs><style>.cls-1{fill:#ba9bc9;}.cls-2{fill:#8242b5;}</style></defs><g id="圖層_5" data-name="圖層 5"><path class="cls-1" d="M230.33,301.58H203.91V281.77h26.42v-9.86H203.91V252.1h26.42V222.51H203.91V202.7h26.42v-9.86H203.91V173h26.42v-29.6H203.91V123.63h26.42v-7.5H358v-46H102.68V325.43H230.33ZM203.91,94H324.49v19.81H203.91Zm-56.54,18.31,10.89,10.31,16-16.83,4.65,4.4-20.37,21.5,0,0-4.61-4.36L143,116.93Zm0,79.07,10.89,10.31,16-16.84,4.65,4.41L158.5,210.72l0,0-4.61-4.37L143,196Zm38.28,110.23H136.18V252.1h49.47Z" transform="translate(-102.68 -70.12)"/></g><g id="圖層_3" data-name="圖層 3"><polygon class="cls-1" points="387.99 70.01 387.99 306.44 153.22 306.44 153.22 325.32 408.53 325.32 408.53 70.01 387.99 70.01"/><polygon class="cls-2" points="382.97 301.32 382.97 235.06 316.71 301.32 382.97 301.32"/><polygon class="cls-1" points="414.1 94.68 414.1 331.11 179.33 331.11 179.33 349.99 434.64 349.99 434.64 94.68 414.1 94.68"/><path class="cls-2" d="M230.33,116.13V371.44H419.39V305.18h66.26v-189ZM370.8,302.68q-5,4.45-13.55,4.45-8.21,0-13.36-4.57a14.48,14.48,0,0,1-5.16-11.29,13.88,13.88,0,0,1,5-11.13q5-4.26,13.48-4.26t13.48,4.26a13.79,13.79,0,0,1,5.11,11.13A14.54,14.54,0,0,1,370.8,302.68Zm9-52.89a39.88,39.88,0,0,0-8.05,8,14.78,14.78,0,0,0-2.34,8.51V269H343.19v-6.88q0-14.3,9.45-22.42a99.32,99.32,0,0,0,7.93-7.19,13.51,13.51,0,0,0,2.5-3.75,11,11,0,0,0,.74-4.21,6.12,6.12,0,0,0-2.61-5,10.69,10.69,0,0,0-6.76-2q-12.58,0-26.41,10.08V196.9a54.38,54.38,0,0,1,13.71-5,65.92,65.92,0,0,1,15.51-2.11q19.14,0,29.26,7.54t10.11,21.91Q396.62,236.6,379.83,249.79Z" transform="translate(-102.68 -70.12)"/></g><g id="圖層_4" data-name="圖層 4"><path class="cls-2" d="M136.18,94v49.47h49.47V94Zm22.32,37.69,0,0-4.61-4.36L143,116.93l4.4-4.65,10.89,10.31,16-16.83,4.65,4.4Z" transform="translate(-102.68 -70.12)"/><path class="cls-2" d="M136.18,173v49.47h49.47V173Zm22.32,37.68,0,0-4.61-4.37L143,196l4.4-4.65,10.89,10.31,16-16.84,4.65,4.41Z" transform="translate(-102.68 -70.12)"/></g></svg>