<svg id="圖層_1" data-name="圖層 1" xmlns="http://www.w3.org/2000/svg" viewBox="0 0 640 480"><defs><style>.cls-1{fill:none;stroke:#ba9bc9;stroke-miterlimit:10;stroke-width:3px;}.cls-2{fill:#ba9bc9;}</style></defs><path class="cls-1" d="M320,419.15a382.76,382.76,0,0,0-186.78,0V205.36a416.7,416.7,0,0,1,186.78,0Z"/><path class="cls-1" d="M506.78,419.15a382.76,382.76,0,0,0-186.78,0V205.36a416.7,416.7,0,0,1,186.78,0Z"/><path class="cls-2" d="M192.41,206.93a420.19,420.19,0,0,0-44.17,6v45.28a417.42,417.42,0,0,1,44.17-6Z"/><path class="cls-2" d="M227.94,205.3c-9.18,0-18,.3-26.51.83v10c8.49-.54,17.33-.84,26.51-.84a416.56,416.56,0,0,1,77.74,7.38v-10A416.63,416.63,0,0,0,227.94,205.3Z"/><path class="cls-2" d="M227.94,223.53c-9.18,0-18,.29-26.51.83v9.95c8.49-.53,17.33-.84,26.51-.83a416.63,416.63,0,0,1,77.74,7.37V230.9A416.63,416.63,0,0,0,227.94,223.53Z"/><path class="cls-2" d="M227.94,241.75c-9.18,0-18,.3-26.51.83v10c8.49-.54,17.33-.84,26.51-.83a415.79,415.79,0,0,1,77.74,7.37v-10A416.63,416.63,0,0,0,227.94,241.75Z"/><path class="cls-2" d="M194.62,276.35a25,25,0,1,0,25,25A25,25,0,0,0,194.62,276.35Zm9.66,17.24a2.21,2.21,0,1,1-2.21,2.2A2.2,2.2,0,0,1,204.28,293.59Zm-19.32,0a2.21,2.21,0,1,1-2.21,2.2A2.2,2.2,0,0,1,185,293.59Zm20.71,19.87a1.57,1.57,0,0,1-1.3-.73,11.64,11.64,0,0,0-19.51,0,1.56,1.56,0,0,1-1.29.73,1.52,1.52,0,0,1-1.3-2.32,14.69,14.69,0,0,1,24.69,0A1.51,1.51,0,0,1,205.67,313.46Z"/><path class="cls-2" d="M268.61,330.69l-3.53,3.4-3.4-3.53a14.26,14.26,0,0,0-20.17-.36h0a14.27,14.27,0,0,0-.36,20.18l3.4,3.52,9.9,10.27h0l9.91,10.27,10.27-9.91h0l10.27-9.91,3.52-3.39a14.27,14.27,0,0,0,.36-20.18h0A14.26,14.26,0,0,0,268.61,330.69Z"/><path class="cls-2" d="M499.16,360.05,470.72,345.9l.28,28.37a3.37,3.37,0,0,0,5.37,2.67Z"/><path class="cls-2" d="M540.84,268.16l-22-10.94a3.59,3.59,0,0,0-4.82,1.62L492.51,302.1,475,337.38l-1.75,3.51L501.65,355l1.74-3.5,17.55-35.28L542.46,273A3.59,3.59,0,0,0,540.84,268.16Z"/><path class="cls-2" d="M466.87,366.16a416.07,416.07,0,0,0-136,8.4v8.66a416.07,416.07,0,0,1,136.05-8.4Z"/><path class="cls-2" d="M499.16,386.71a416.59,416.59,0,0,0-168.34,3.8v8.66a416.59,416.59,0,0,1,168.34-3.8Z"/><path class="cls-2" d="M295.64,152c-15,6.7-28.35,19.45-38.78,36.39A493.38,493.38,0,0,1,320,198.62a495.15,495.15,0,0,1,63.14-10.28c-10.43-16.94-23.75-29.69-38.78-36.39a49.54,49.54,0,1,0-48.72,0Z"/></svg>