<svg xmlns="http://www.w3.org/2000/svg" viewBox="0 0 621.42 473.19"><defs><style>.cls-1{fill:#ba9bc9;}.cls-2{fill:none;stroke:#ba9bc9;stroke-miterlimit:10;}</style></defs><g id="圖層_1" data-name="圖層 1"><path class="cls-1" d="M472.09,338.39a66,66,0,0,0-41.72,117.23c5.92-16.9,16.13-29.77,28.42-35.25a27,27,0,1,1,26.6,0c12.28,5.48,22.49,18.35,28.42,35.25a66,66,0,0,0-41.72-117.23Z" transform="translate(-9.55 -1.19)"/><path class="cls-1" d="M208.47,70.38a24.36,24.36,0,1,0-24,0c-11.7,5.22-21.3,17.88-26.47,34.39a74.26,74.26,0,0,0,76.9,0C229.77,88.26,220.16,75.6,208.47,70.38Z" transform="translate(-9.55 -1.19)"/><path class="cls-1" d="M152.13,424.15a17.82,17.82,0,1,0-17.53,0c-8.55,3.82-15.58,13.08-19.36,25.16a54.37,54.37,0,0,0,56.25,0C167.71,437.23,160.68,428,152.13,424.15Z" transform="translate(-9.55 -1.19)"/><path class="cls-1" d="M96.33,111.31A48.85,48.85,0,0,0,65.47,198c4.38-12.5,11.94-22,21-26.07a20,20,0,1,1,19.68,0c9.08,4.05,16.64,13.57,21,26.07a48.85,48.85,0,0,0-30.86-86.71Z" transform="translate(-9.55 -1.19)"/><path class="cls-1" d="M506.39,67.15a17.81,17.81,0,1,0-17.52,0c-8.56,3.81-15.58,13.08-19.36,25.16a54.35,54.35,0,0,0,56.24,0C522,80.23,515,71,506.39,67.15Z" transform="translate(-9.55 -1.19)"/><path class="cls-1" d="M77,294.6a17.82,17.82,0,1,0-17.52,0c-8.56,3.82-15.58,13.08-19.36,25.16a54.29,54.29,0,0,0,56.24,0C92.55,307.68,85.52,298.42,77,294.6Z" transform="translate(-9.55 -1.19)"/><path class="cls-1" d="M245.33,319.63a48.84,48.84,0,0,0-30.86,86.7c4.39-12.49,11.94-22,21-26.07a20,20,0,1,1,19.67,0c9.09,4.06,16.64,13.58,21,26.07a48.84,48.84,0,0,0-30.86-86.7Z" transform="translate(-9.55 -1.19)"/><path class="cls-1" d="M343,49.33A48.84,48.84,0,0,0,312.16,136c4.39-12.49,11.94-22,21-26.07a20,20,0,1,1,19.68,0c9.08,4.05,16.64,13.58,21,26.07A48.84,48.84,0,0,0,343,49.33Z" transform="translate(-9.55 -1.19)"/><path class="cls-1" d="M596.48,198.24a24.36,24.36,0,1,0-24,0c-11.7,5.22-21.31,17.88-26.48,34.39a74.26,74.26,0,0,0,76.9,0C617.78,216.12,608.18,203.46,596.48,198.24Z" transform="translate(-9.55 -1.19)"/><path class="cls-1" d="M194.32,242a17.82,17.82,0,1,0-17.52,0c-8.56,3.82-15.58,13.08-19.36,25.16a54.29,54.29,0,0,0,56.24,0C209.9,255,202.87,245.77,194.32,242Z" transform="translate(-9.55 -1.19)"/><path class="cls-1" d="M596.48,319.63a34.5,34.5,0,0,0-21.8,61.24c3.09-8.82,8.43-15.55,14.85-18.41a14.13,14.13,0,1,1,13.89,0c6.42,2.86,11.76,9.59,14.85,18.41a34.49,34.49,0,0,0-21.79-61.24Z" transform="translate(-9.55 -1.19)"/><path class="cls-1" d="M484.52,240a36.41,36.41,0,0,0-23,64.63c3.26-9.31,8.89-16.41,15.67-19.43a14.91,14.91,0,1,1,14.66,0c6.78,3,12.41,10.12,15.67,19.43a36.41,36.41,0,0,0-23-64.63Z" transform="translate(-9.55 -1.19)"/><line class="cls-2" x1="213.93" y1="117.4" x2="294.47" y2="203.06"/><line class="cls-2" x1="156.94" y1="114.31" x2="133.81" y2="127.71"/><line class="cls-2" x1="99.52" y1="213.4" x2="128.67" y2="374.19"/><line class="cls-2" x1="65.94" y1="337.97" x2="114.09" y2="384.79"/><line class="cls-2" x1="186.94" y1="282.31" x2="204.13" y2="318.44"/><line class="cls-2" x1="204.13" y1="246.98" x2="280.62" y2="233.22"/><line class="cls-2" x1="128.67" y1="203.06" x2="152.89" y2="216.06"/><line class="cls-2" x1="99.52" y1="436.69" x2="42.24" y2="469.82"/><line class="cls-2" x1="30.53" y1="127.71" x2="3.37" y2="110.12"/><line class="cls-2" x1="156.94" y1="29.21" x2="128.67" y2="3.37"/><line class="cls-2" x1="220.47" y1="68.97" x2="280.62" y2="75.59"/><line class="cls-2" x1="333.94" y1="39.15" x2="333.94" y2="3.37"/><line class="cls-2" x1="390.09" y1="80.89" x2="459.96" y2="63.66"/><line class="cls-2" x1="357.63" y1="213.4" x2="459.96" y2="105.4"/><line class="cls-2" x1="484.84" y1="105.4" x2="484.84" y2="229.97"/><line class="cls-2" x1="516.2" y1="101.21" x2="565.67" y2="144.5"/><line class="cls-2" x1="516.2" y1="44.23" x2="568.33" y2="21.26"/><circle class="cls-1" cx="484.84" cy="232.21" r="3.37"/><line class="cls-2" x1="340.38" y1="185.58" x2="340.38" y2="148.47"/><circle class="cls-1" cx="340.38" cy="148.47" r="3.37"/><circle class="cls-1" cx="340.38" cy="185.58" r="3.37"/><line class="cls-2" x1="433.82" y1="264.09" x2="354.26" y2="239.88"/><circle class="cls-1" cx="354.26" cy="239.88" r="3.37"/><circle class="cls-1" cx="433.82" cy="264.09" r="3.37"/><circle class="cls-1" cx="357.63" cy="213.4" r="3.37"/><circle class="cls-1" cx="459.96" cy="105.4" r="3.37"/><circle class="cls-1" cx="565.67" cy="144.5" r="3.37"/><circle class="cls-1" cx="484.84" cy="108.77" r="3.37"/><circle class="cls-1" cx="516.2" cy="101.21" r="3.37"/><circle class="cls-1" cx="516.2" cy="44.23" r="3.37"/><circle class="cls-1" cx="568.33" cy="21.26" r="3.37"/><circle class="cls-1" cx="459.96" cy="63.66" r="3.37"/><circle class="cls-1" cx="390.09" cy="80.89" r="3.37"/><circle class="cls-1" cx="333.94" cy="39.15" r="3.37"/><circle class="cls-1" cx="333.47" cy="3.37" r="3.37"/><circle class="cls-1" cx="220.47" cy="68.97" r="3.37"/><circle class="cls-1" cx="280.62" cy="75.59" r="3.37"/><circle class="cls-1" cx="156.94" cy="29.21" r="3.37"/><circle class="cls-1" cx="128.67" cy="3.37" r="3.37"/><circle class="cls-1" cx="156.94" cy="114.31" r="3.37"/><circle class="cls-1" cx="294.47" cy="203.06" r="3.37"/><circle class="cls-1" cx="213.93" cy="117.4" r="3.37"/><circle class="cls-1" cx="133.81" cy="127.71" r="3.37"/><circle class="cls-1" cx="99.52" cy="213.4" r="3.37"/><circle class="cls-1" cx="280.62" cy="233.22" r="3.37"/><circle class="cls-1" cx="204.13" cy="246.98" r="3.37"/><circle class="cls-1" cx="152.89" cy="216.06" r="3.37"/><circle class="cls-1" cx="128.67" cy="203.06" r="3.37"/><circle class="cls-1" cx="30.53" cy="127.71" r="3.37"/><circle class="cls-1" cx="3.37" cy="110.12" r="3.37"/><circle class="cls-1" cx="186.94" cy="282.31" r="3.37"/><circle class="cls-1" cx="204.13" cy="318.44" r="3.37"/><circle class="cls-1" cx="128.67" cy="374.19" r="3.37"/><circle class="cls-1" cx="99.52" cy="436.69" r="3.37"/><circle class="cls-1" cx="42.24" cy="469.82" r="3.37"/><circle class="cls-1" cx="65.94" cy="337.97" r="3.37"/><circle class="cls-1" cx="114.09" cy="384.79" r="3.37"/><circle class="cls-1" cx="232.4" cy="414.83" r="3.37"/><circle class="cls-1" cx="166.8" cy="436.69" r="3.37"/><line class="cls-2" x1="574.95" y1="250.34" x2="523.27" y2="274.32"/><line class="cls-2" x1="586.92" y1="246.98" x2="586.92" y2="310.14"/><line class="cls-2" x1="280.62" y1="331.02" x2="297.83" y2="303.44"/><line class="cls-2" x1="291.1" y1="379.68" x2="386.72" y2="389.63"/><line class="cls-2" x1="474.97" y1="310.14" x2="472.03" y2="328.25"/><line class="cls-2" x1="523.27" y1="361.79" x2="546.24" y2="353.43"/><line class="cls-2" x1="166.8" y1="436.69" x2="232.4" y2="414.83"/><line class="cls-2" x1="254.2" y1="414.83" x2="280.62" y2="469.82"/><circle class="cls-1" cx="297.83" cy="303.44" r="3.37"/><circle class="cls-1" cx="280.62" cy="469.82" r="3.37"/><circle class="cls-1" cx="254.2" cy="414.83" r="3.37"/><circle class="cls-1" cx="280.62" cy="330.9" r="3.37"/><circle class="cls-1" cx="291.1" cy="379.68" r="3.37"/><circle class="cls-1" cx="386.72" cy="389.63" r="3.37"/><circle class="cls-1" cx="586.92" cy="310.14" r="3.37"/><circle class="cls-1" cx="586.92" cy="246.98" r="3.37"/><circle class="cls-1" cx="545.44" cy="353.43" r="3.37"/><circle class="cls-1" cx="523.27" cy="361.79" r="3.37"/><circle class="cls-1" cx="574.95" cy="250.34" r="3.37"/><circle class="cls-1" cx="523.27" cy="274.32" r="3.37"/><circle class="cls-1" cx="472.03" cy="328.25" r="3.37"/><circle class="cls-1" cx="474.97" cy="310.14" r="3.37"/></g><g id="圖層_2" data-name="圖層 2"><path class="cls-1" d="M325.75,196a1.78,1.78,0,0,0,1.54.79c3.28,0,3.28,0,3.28-3.25,0-.24,0-.48,0-.72a1.29,1.29,0,0,1,1.69-1.26c4.92,1.13,8.24,4,9.52,9a3.11,3.11,0,0,0,.53,1.08,32.78,32.78,0,0,1,6.5,16.28,49.33,49.33,0,0,1-2.69,22.2,55.25,55.25,0,0,0-2.81,22.75,35.36,35.36,0,0,0,6.27,17.57,6.36,6.36,0,0,1,.34.54A59.15,59.15,0,0,0,335,288.84a57.22,57.22,0,0,0-9.36,8.29c-.34.38-.54.6-1,.09-7.44-8.12-16.7-13.39-26.92-17.13-.87-.32-1-.68-.82-1.53A66.46,66.46,0,0,1,312,250a49.66,49.66,0,0,0,11.27-20c.57-2.09.56-2.06-1.6-1.82a39.91,39.91,0,0,1-5.13.12c-3.37-.06-6.71.07-9.83,1.58a7.38,7.38,0,0,0-1.91,1.19,1.28,1.28,0,0,1-1.58.26,17.41,17.41,0,0,1-8.84-8.9c-.35-.75-.08-1.18.65-1.39,4.08-1.2,6.89-4,9-7.48a41.88,41.88,0,0,1,13.59-13.61c.89-.56.95-1,.51-1.9-4-8.49-12.19-26.7-12.19-26.7S321.8,190.87,325.75,196Z" transform="translate(-9.55 -1.19)"/><path class="cls-1" d="M280.65,280.18c13.61.11,25.48,4.92,36,13.32a54.67,54.67,0,0,1,7.91,7.6c.44.52.61.4,1,0a62.55,62.55,0,0,1,19.17-14.74c14.16-7.06,28.72-7.68,43.61-2.58,2,.69,4,1.48,5.91,2.34.64.29.89.54.53,1.28-.67,1.35-1.24,2.74-1.81,4.13-.27.67-.6.7-1.24.44a59.18,59.18,0,0,0-17.24-4.33,52.93,52.93,0,0,0-25.13,3.71,62.37,62.37,0,0,0-23.5,16.81c-.58.66-.85.8-1.52.05-8.95-10.15-19.87-17.09-33.19-19.9-10.23-2.16-20.25-1-30,2.45a19.18,19.18,0,0,0-2.67,1c-.81.43-1.14.14-1.43-.57-.57-1.39-1.15-2.78-1.78-4.14-.32-.68-.18-1,.52-1.28A71.89,71.89,0,0,1,267,281.92,55.43,55.43,0,0,1,280.65,280.18Z" transform="translate(-9.55 -1.19)"/><path class="cls-1" d="M349.09,275.51a37.53,37.53,0,0,1-3.75-14.16,61.57,61.57,0,0,1,3.42-23.79c2.91-8.83,3.5-17.81.69-26.83a30.34,30.34,0,0,0-4.69-9.18c-.68-.91-.64-2.14-1.2-3.13-.21-.37.16-.45.46-.38a4.9,4.9,0,0,1,1.91,1c3.1,2.39,4.85,5.7,6.19,9.26A51.32,51.32,0,0,1,355,222.06a113.21,113.21,0,0,1-.26,20.5,234.18,234.18,0,0,1-5,30.12C349.55,273.52,349.36,274.37,349.09,275.51Z" transform="translate(-9.55 -1.19)"/></g></svg>