<svg id="圖層_1" data-name="圖層 1" xmlns="http://www.w3.org/2000/svg" viewBox="0 0 574.26 406.9"><defs><style>.cls-1{fill:#ba9bc9;}.cls-2{fill:#fff;}.cls-3,.cls-4{fill:#8242b5;}.cls-4{stroke:#8242b5;stroke-miterlimit:10;stroke-width:0.5px;}</style></defs><rect class="cls-1" x="32.87" y="36.55" width="69.14" height="69.95" transform="translate(102.01 106.5) rotate(180)"/><rect class="cls-1" x="32.87" y="112.95" width="118.67" height="7.08" transform="translate(151.54 196.42) rotate(180)"/><rect class="cls-1" x="32.87" y="128.33" width="118.67" height="7.08" transform="translate(151.54 227.18) rotate(180)"/><rect class="cls-1" x="32.87" y="143.71" width="118.67" height="7.08" transform="translate(151.54 257.95) rotate(180)"/><rect class="cls-1" x="109.08" y="67.72" width="42.46" height="7.08" transform="translate(227.76 105.96) rotate(180)"/><rect class="cls-1" x="109.08" y="83.3" width="42.46" height="7.08" transform="translate(227.76 137.13) rotate(180)"/><rect class="cls-1" x="109.08" y="98.89" width="42.46" height="7.08" transform="translate(227.76 168.3) rotate(180)"/><rect class="cls-1" x="109.08" y="36.55" width="42.46" height="7.08" transform="translate(227.76 43.63) rotate(180)"/><rect class="cls-1" x="109.08" y="52.13" width="42.46" height="7.08" transform="translate(227.76 74.79) rotate(180)"/><rect class="cls-1" x="260.74" y="67.72" width="42.46" height="7.08" transform="translate(531.08 105.96) rotate(180)"/><rect class="cls-1" x="260.74" y="83.3" width="42.46" height="7.08" transform="translate(531.08 137.13) rotate(180)"/><rect class="cls-1" x="260.74" y="36.55" width="42.46" height="7.08" transform="translate(531.08 43.63) rotate(180)"/><rect class="cls-1" x="260.74" y="52.13" width="42.46" height="7.08" transform="translate(531.08 74.79) rotate(180)"/><rect class="cls-1" x="336.19" y="36.55" width="69.14" height="69.95" transform="translate(708.64 106.5) rotate(180)"/><rect class="cls-1" x="336.19" y="112.95" width="118.67" height="7.08" transform="translate(758.18 196.42) rotate(180)"/><rect class="cls-1" x="336.19" y="128.33" width="118.67" height="7.08" transform="translate(758.18 227.18) rotate(180)"/><rect class="cls-1" x="336.19" y="143.71" width="118.67" height="7.08" transform="translate(758.18 257.95) rotate(180)"/><rect class="cls-1" x="412.4" y="67.72" width="42.46" height="7.08" transform="translate(834.39 105.96) rotate(180)"/><rect class="cls-1" x="412.4" y="83.3" width="42.46" height="7.08" transform="translate(834.39 137.13) rotate(180)"/><rect class="cls-1" x="412.4" y="98.89" width="42.46" height="7.08" transform="translate(834.39 168.3) rotate(180)"/><rect class="cls-1" x="412.4" y="36.55" width="42.46" height="7.08" transform="translate(834.39 43.63) rotate(180)"/><rect class="cls-1" x="412.4" y="52.13" width="42.46" height="7.08" transform="translate(834.39 74.79) rotate(180)"/><rect class="cls-1" x="487.85" y="36.55" width="69.14" height="69.95" transform="translate(1011.96 106.5) rotate(180)"/><rect class="cls-1" x="487.85" y="112.95" width="118.67" height="7.08" transform="translate(1061.5 196.42) rotate(180)"/><rect class="cls-1" x="487.85" y="128.33" width="118.67" height="7.08" transform="translate(1061.5 227.18) rotate(180)"/><rect class="cls-1" x="487.85" y="143.71" width="118.67" height="7.08" transform="translate(1061.5 257.95) rotate(180)"/><rect class="cls-1" x="564.06" y="67.72" width="42.46" height="7.08" transform="translate(1137.71 105.96) rotate(180)"/><rect class="cls-1" x="564.06" y="83.3" width="42.46" height="7.08" transform="translate(1137.71 137.13) rotate(180)"/><rect class="cls-1" x="564.06" y="98.89" width="42.46" height="7.08" transform="translate(1137.71 168.3) rotate(180)"/><rect class="cls-1" x="564.06" y="36.55" width="42.46" height="7.08" transform="translate(1137.71 43.63) rotate(180)"/><rect class="cls-1" x="564.06" y="52.13" width="42.46" height="7.08" transform="translate(1137.71 74.79) rotate(180)"/><rect class="cls-1" x="33.48" y="182.88" width="69.14" height="69.95" transform="translate(103.22 399.16) rotate(180)"/><rect class="cls-1" x="33.48" y="259.28" width="118.67" height="7.08" transform="translate(152.76 489.08) rotate(180)"/><rect class="cls-1" x="33.48" y="274.66" width="118.67" height="7.08" transform="translate(152.76 519.85) rotate(180)"/><rect class="cls-1" x="33.48" y="290.04" width="118.67" height="7.08" transform="translate(152.76 550.61) rotate(180)"/><rect class="cls-1" x="336.8" y="259.28" width="118.67" height="7.08" transform="translate(759.39 489.08) rotate(180)"/><rect class="cls-1" x="336.8" y="274.66" width="118.67" height="7.08" transform="translate(759.39 519.85) rotate(180)"/><rect class="cls-1" x="336.8" y="290.04" width="118.67" height="7.08" transform="translate(759.39 550.61) rotate(180)"/><rect class="cls-1" x="413.01" y="214.05" width="42.46" height="7.08" transform="translate(835.61 398.62) rotate(180)"/><rect class="cls-1" x="413.01" y="229.63" width="42.46" height="7.08" transform="translate(835.61 429.79) rotate(180)"/><rect class="cls-1" x="413.01" y="245.22" width="42.46" height="7.08" transform="translate(835.61 460.96) rotate(180)"/><rect class="cls-1" x="413.01" y="182.88" width="42.46" height="7.08" transform="translate(835.61 336.29) rotate(180)"/><rect class="cls-1" x="413.01" y="198.47" width="42.46" height="7.08" transform="translate(835.61 367.46) rotate(180)"/><rect class="cls-1" x="488.46" y="182.88" width="69.14" height="69.95" transform="translate(1013.17 399.16) rotate(180)"/><rect class="cls-1" x="488.46" y="259.28" width="118.67" height="7.08" transform="translate(1062.71 489.08) rotate(180)"/><rect class="cls-1" x="488.46" y="274.66" width="118.67" height="7.08" transform="translate(1062.71 519.85) rotate(180)"/><rect class="cls-1" x="488.46" y="290.04" width="118.67" height="7.08" transform="translate(1062.71 550.61) rotate(180)"/><rect class="cls-1" x="564.67" y="214.05" width="42.46" height="7.08" transform="translate(1138.92 398.62) rotate(180)"/><rect class="cls-1" x="564.67" y="229.63" width="42.46" height="7.08" transform="translate(1138.92 429.79) rotate(180)"/><rect class="cls-1" x="564.67" y="245.22" width="42.46" height="7.08" transform="translate(1138.92 460.96) rotate(180)"/><rect class="cls-1" x="564.67" y="182.88" width="42.46" height="7.08" transform="translate(1138.92 336.29) rotate(180)"/><rect class="cls-1" x="564.67" y="198.47" width="42.46" height="7.08" transform="translate(1138.92 367.46) rotate(180)"/><rect class="cls-1" x="33.48" y="329.21" width="69.14" height="69.95" transform="translate(103.22 691.83) rotate(180)"/><rect class="cls-1" x="33.48" y="405.61" width="118.67" height="7.08" transform="translate(152.76 781.74) rotate(180)"/><rect class="cls-1" x="33.48" y="420.99" width="118.67" height="7.08" transform="translate(152.76 812.51) rotate(180)"/><rect class="cls-1" x="33.48" y="436.37" width="118.67" height="7.08" transform="translate(152.76 843.27) rotate(180)"/><rect class="cls-1" x="109.69" y="360.38" width="42.46" height="7.08" transform="translate(228.97 691.29) rotate(180)"/><rect class="cls-1" x="109.69" y="375.96" width="42.46" height="7.08" transform="translate(228.97 722.45) rotate(180)"/><rect class="cls-1" x="109.69" y="391.55" width="42.46" height="7.08" transform="translate(228.97 753.62) rotate(180)"/><rect class="cls-1" x="109.69" y="329.21" width="42.46" height="7.08" transform="translate(228.97 628.95) rotate(180)"/><rect class="cls-1" x="109.69" y="344.8" width="42.46" height="7.08" transform="translate(228.97 660.12) rotate(180)"/><rect class="cls-1" x="185.14" y="329.21" width="69.14" height="69.95" transform="translate(406.54 691.83) rotate(180)"/><rect class="cls-1" x="185.14" y="405.61" width="118.67" height="7.08" transform="translate(456.08 781.74) rotate(180)"/><rect class="cls-1" x="185.14" y="420.99" width="118.67" height="7.08" transform="translate(456.08 812.51) rotate(180)"/><rect class="cls-1" x="185.14" y="436.37" width="118.67" height="7.08" transform="translate(456.08 843.27) rotate(180)"/><rect class="cls-1" x="261.35" y="360.38" width="42.46" height="7.08" transform="translate(532.29 691.29) rotate(180)"/><rect class="cls-1" x="261.35" y="375.96" width="42.46" height="7.08" transform="translate(532.29 722.45) rotate(180)"/><rect class="cls-1" x="261.35" y="391.55" width="42.46" height="7.08" transform="translate(532.29 753.62) rotate(180)"/><rect class="cls-1" x="261.35" y="329.21" width="42.46" height="7.08" transform="translate(532.29 628.95) rotate(180)"/><rect class="cls-1" x="261.35" y="344.8" width="42.46" height="7.08" transform="translate(532.29 660.12) rotate(180)"/><rect class="cls-1" x="336.8" y="329.21" width="69.14" height="69.95" transform="translate(709.86 691.83) rotate(180)"/><rect class="cls-1" x="336.8" y="405.61" width="118.67" height="7.08" transform="translate(759.39 781.74) rotate(180)"/><rect class="cls-1" x="336.8" y="420.99" width="118.67" height="7.08" transform="translate(759.39 812.51) rotate(180)"/><rect class="cls-1" x="336.8" y="436.37" width="118.67" height="7.08" transform="translate(759.39 843.27) rotate(180)"/><rect class="cls-1" x="413.01" y="360.38" width="42.46" height="7.08" transform="translate(835.61 691.29) rotate(180)"/><rect class="cls-1" x="413.01" y="375.96" width="42.46" height="7.08" transform="translate(835.61 722.45) rotate(180)"/><rect class="cls-1" x="413.01" y="391.55" width="42.46" height="7.08" transform="translate(835.61 753.62) rotate(180)"/><rect class="cls-1" x="413.01" y="329.21" width="42.46" height="7.08" transform="translate(835.61 628.95) rotate(180)"/><rect class="cls-1" x="413.01" y="344.8" width="42.46" height="7.08" transform="translate(835.61 660.12) rotate(180)"/><rect class="cls-1" x="488.46" y="329.21" width="69.14" height="69.95" transform="translate(1013.17 691.83) rotate(180)"/><rect class="cls-1" x="488.46" y="405.61" width="118.67" height="7.08" transform="translate(1062.71 781.74) rotate(180)"/><rect class="cls-1" x="488.46" y="420.99" width="118.67" height="7.08" transform="translate(1062.71 812.51) rotate(180)"/><rect class="cls-1" x="488.46" y="436.37" width="118.67" height="7.08" transform="translate(1062.71 843.27) rotate(180)"/><rect class="cls-1" x="564.67" y="360.38" width="42.46" height="7.08" transform="translate(1138.92 691.29) rotate(180)"/><rect class="cls-1" x="564.67" y="375.96" width="42.46" height="7.08" transform="translate(1138.92 722.45) rotate(180)"/><rect class="cls-1" x="564.67" y="391.55" width="42.46" height="7.08" transform="translate(1138.92 753.62) rotate(180)"/><rect class="cls-1" x="564.67" y="329.21" width="42.46" height="7.08" transform="translate(1138.92 628.95) rotate(180)"/><rect class="cls-1" x="564.67" y="344.8" width="42.46" height="7.08" transform="translate(1138.92 660.12) rotate(180)"/><path class="cls-2" d="M349.18,238.13a0,0,0,0,0,0,0,0,0,0,1,0,0,0Z" transform="translate(-32.87 -36.55)"/><path class="cls-1" d="M191.77,290h-6.63v7.08h21.48A102.17,102.17,0,0,1,191.77,290Z" transform="translate(-32.87 -36.55)"/><path class="cls-1" d="M279,297.12h24.85V290h-10A101.68,101.68,0,0,1,279,297.12Z" transform="translate(-32.87 -36.55)"/><path class="cls-1" d="M342.73,182.88A102.21,102.21,0,0,1,336.8,241v11.86h69.13v-70Z" transform="translate(-32.87 -36.55)"/><path class="cls-1" d="M276.43,106H303.2V98.89H260.74v3A101.3,101.3,0,0,1,276.43,106Z" transform="translate(-32.87 -36.55)"/><path class="cls-1" d="M242.79,100.26a102.91,102.91,0,0,1,10.88.58V36.55H184.53v70h23.11A101.57,101.57,0,0,1,242.79,100.26Z" transform="translate(-32.87 -36.55)"/><path class="cls-1" d="M303.05,120h.15V113H292A102.42,102.42,0,0,1,303.05,120Z" transform="translate(-32.87 -36.55)"/><path class="cls-1" d="M193.57,113h-9v5.64A102.66,102.66,0,0,1,193.57,113Z" transform="translate(-32.87 -36.55)"/><path class="cls-1" d="M142.85,182.88H109.69V190h32.07Q142.2,186.38,142.85,182.88Z" transform="translate(-32.87 -36.55)"/><path class="cls-1" d="M141.05,202c0-1.18,0-2.36.07-3.53H109.69v7.07h31.43C141.08,204.37,141.05,203.19,141.05,202Z" transform="translate(-32.87 -36.55)"/><path class="cls-1" d="M141.76,214.05H109.69v7.08h33.16Q142.19,217.62,141.76,214.05Z" transform="translate(-32.87 -36.55)"/><path class="cls-1" d="M144.85,229.63H109.69v7.08h37.44Q145.87,233.23,144.85,229.63Z" transform="translate(-32.87 -36.55)"/><path class="cls-1" d="M150.67,245.22h-41v7.07h42.46v-4C151.64,247.25,151.15,246.24,150.67,245.22Z" transform="translate(-32.87 -36.55)"/><rect class="cls-3" x="419.43" y="253.27" width="67.14" height="186.63" rx="15.28" transform="translate(-122.14 486.87) rotate(-55.48)"/><path class="cls-3" d="M325.16,82.42a145.21,145.21,0,1,0,37.36,201.93A145.2,145.2,0,0,0,325.16,82.42ZM242.79,303.74A101.74,101.74,0,1,1,344.53,202,101.74,101.74,0,0,1,242.79,303.74Z" transform="translate(-32.87 -36.55)"/><path class="cls-3" d="M270.05,250.41q-19.42.51-38.87.51c-6.22,0-13,.62-19.1-.62-6.62-1.34-9.75-6.35-10.7-12.65-.78-5.22-.35-10.55-.33-15.8,0-6.63-.74-13.54,2.4-19.65,6.16-12,20.2-14.41,32.31-16,1.41-.19,2-1.91,1.75-3.08-2.12-11-4.52-22.81-1.36-33.83,2.42-8.46,9.22-17.27,18.83-16.67l-2.5-2.5c-.26,10.15-.3,20.36,1.28,30.42,1.5,9.58,4.9,17.26,10,25.35,2.34,3.68.66,9.9.51,14.29q-.35,9.44,0,18.88a282.12,282.12,0,0,0,3.36,34.56c.5,3.17,5.32,1.82,4.82-1.33A272.46,272.46,0,0,1,269.25,218q-.27-9,.06-17.9.13-3.91.39-7.82c.13-1.89.92-4.92.23-6.75s-2.64-3.25-3.7-4.84a40.29,40.29,0,0,1-3.17-5.67,58,58,0,0,1-4.23-14.37c-1.74-10.09-1.61-20.42-1.35-30.61a2.55,2.55,0,0,0-2.5-2.5c-10.27-.64-18.3,7.28-22.13,16.17-5.54,12.85-2.72,27.45-.17,40.66l1.75-3.08c-13.3,1.79-27.88,5-35,17.7-3.33,6-3.54,12.52-3.46,19.2s-.54,13.47.44,20.1c.77,5.24,2.75,10.43,7.14,13.7,5,3.69,11.34,3.77,17.26,3.84,16.4.2,32.81,0,49.2-.46C273.26,255.33,273.28,250.33,270.05,250.41Z" transform="translate(-32.87 -36.55)"/><path class="cls-4" d="M277.61,219.53a269.52,269.52,0,0,0,3.28,33.89l29.28,0a84.36,84.36,0,0,0,16-66.32H278.48A270.21,270.21,0,0,0,277.61,219.53Z" transform="translate(-32.87 -36.55)"/></svg>