<svg id="圖層_1" data-name="圖層 1" xmlns="http://www.w3.org/2000/svg" viewBox="0 0 640.5 333.43"><defs><style>.cls-1,.cls-2,.cls-3,.cls-5{fill:#ba9bc9;}.cls-2{opacity:0.7;}.cls-3{opacity:0.4;}.cls-4{fill:#8242b5;}.cls-5{stroke:#ba9bc9;stroke-miterlimit:10;stroke-width:0.5px;}</style></defs><path class="cls-1" d="M503.17,197.43l-3.53,3.4-3.4-3.53a14.26,14.26,0,0,0-20.17-.36h0a14.27,14.27,0,0,0-.37,20.18l3.4,3.52L489,230.91h0l9.91,10.27,10.27-9.91h0l10.27-9.9L523,218a14.27,14.27,0,0,0,.36-20.18h0A14.26,14.26,0,0,0,503.17,197.43Z" transform="translate(0.25 -73.44)"/><path class="cls-2" d="M533.65,136.49l-2.59,2.5-2.5-2.59a10.48,10.48,0,0,0-14.82-.27h0a10.49,10.49,0,0,0-.27,14.83l2.5,2.59,7.28,7.54h0l7.28,7.55,7.55-7.28h0l7.54-7.28,2.59-2.5a10.48,10.48,0,0,0,.27-14.82h0A10.49,10.49,0,0,0,533.65,136.49Z" transform="translate(0.25 -73.44)"/><path class="cls-3" d="M502.2,76.74l-2.59,2.5-2.5-2.59a10.48,10.48,0,0,0-14.82-.27h0A10.49,10.49,0,0,0,482,91.21l2.5,2.59,7.28,7.55h0l7.28,7.54,7.55-7.28h0l7.54-7.28,2.59-2.5A10.48,10.48,0,0,0,517,77h0A10.49,10.49,0,0,0,502.2,76.74Z" transform="translate(0.25 -73.44)"/><path class="cls-4" d="M280.53,347.33,217,301l-11.09,69.34a8.35,8.35,0,0,0,12,8.75Z" transform="translate(0.25 -73.44)"/><path class="cls-4" d="M420.43,140.38l-49.14-35.83a8.9,8.9,0,0,0-12.44,2l-70.49,96.65L230.88,282l-5.71,7.83,63.53,46.33,5.71-7.83,57.48-78.82,70.48-96.66A8.9,8.9,0,0,0,420.43,140.38Z" transform="translate(0.25 -73.44)"/><path class="cls-1" d="M140.48,238.18a25,25,0,1,0,25,25A25,25,0,0,0,140.48,238.18Zm9.66,17.23a2.21,2.21,0,1,1-2.21,2.21A2.21,2.21,0,0,1,150.14,255.41Zm-19.33,0a2.21,2.21,0,1,1-2.2,2.21A2.21,2.21,0,0,1,130.81,255.41Zm20.72,19.88a1.57,1.57,0,0,1-1.3-.73,11.64,11.64,0,0,0-19.51,0,1.56,1.56,0,0,1-1.3.73,1.52,1.52,0,0,1-1.29-2.32,14.68,14.68,0,0,1,24.69,0A1.51,1.51,0,0,1,151.53,275.29Z" transform="translate(0.25 -73.44)"/><path class="cls-2" d="M109,312a17.51,17.51,0,1,0,17.71,17.51A17.72,17.72,0,0,0,109,312Zm6.85,12.23a1.57,1.57,0,1,1-1.56,1.57A1.57,1.57,0,0,1,115.88,324.23Zm-13.71,0a1.57,1.57,0,1,1-1.57,1.57A1.57,1.57,0,0,1,102.17,324.23Zm14.7,14.11a1.11,1.11,0,0,1-.92-.52,8.27,8.27,0,0,0-13.85,0,1.11,1.11,0,0,1-.92.52,1.08,1.08,0,0,1-.92-1.65,10.43,10.43,0,0,1,17.53,0A1.08,1.08,0,0,1,116.87,338.34Z" transform="translate(0.25 -73.44)"/><path class="cls-3" d="M140.48,371.54A17.51,17.51,0,1,0,158.19,389,17.72,17.72,0,0,0,140.48,371.54Zm6.85,12.23a1.57,1.57,0,1,1-1.56,1.56A1.56,1.56,0,0,1,147.33,383.77Zm-13.71,0a1.57,1.57,0,1,1-1.57,1.56A1.57,1.57,0,0,1,133.62,383.77Zm14.7,14.1a1.1,1.1,0,0,1-.92-.52,8.27,8.27,0,0,0-13.85,0,1.08,1.08,0,0,1-.92.52,1.07,1.07,0,0,1-.91-1.64,10.42,10.42,0,0,1,17.52,0A1.07,1.07,0,0,1,148.32,397.87Z" transform="translate(0.25 -73.44)"/><path class="cls-1" d="M415.92,368.91H256.67l-32.22,16.34H415.92a8.17,8.17,0,0,0,0-16.34Z" transform="translate(0.25 -73.44)"/><path class="cls-1" d="M523.52,401.28q-22.39.6-44.81.57c-6.64,0-13.8.62-20.34-.7-7.59-1.54-11.19-7.3-12.25-14.6-.88-6.12-.34-12.38-.36-18.54,0-7.5-.69-15.22,3.12-22,7.29-13,22.58-15.61,36.07-17.42,1.41-.19,2-1.9,1.74-3.08-2.38-12.31-5.05-25.57-1.57-37.94,2.71-9.65,10.49-19.87,21.48-19.13l-2.5-2.5c-.29,11.41-.33,22.86,1.44,34.16,1.72,11,5.65,19.6,11.62,28.79,1.53,2.35.8,4.75.62,7.59q-.3,4.62-.45,9.25-.32,10,0,20a315.86,315.86,0,0,0,3.77,38.7c.5,3.17,5.32,1.82,4.82-1.33a303.85,303.85,0,0,1-3.62-38.32q-.28-9.54,0-19.09c.11-3.09.25-6.17.45-9.25.14-2.21,1.11-5.72.44-7.83-.59-1.9-2.73-3.48-3.84-5.09a45.18,45.18,0,0,1-3.92-6.86A64.72,64.72,0,0,1,510.74,301c-2.09-11.54-1.94-23.4-1.64-35.09a2.55,2.55,0,0,0-2.5-2.5c-11.66-.78-20.7,8.53-24.85,18.64-5.82,14.19-2.68,30.25.12,44.76l1.75-3.08c-14.69,2-30.51,5.35-38.7,19.1-4.12,6.91-4.28,14.6-4.19,22.43.08,7.3-.58,14.71.46,22,.82,5.78,2.95,11.49,7.7,15.15,5.52,4.26,12.74,4.34,19.4,4.42,18.41.21,36.83,0,55.23-.52C526.73,406.2,526.74,401.2,523.52,401.28Z" transform="translate(0.25 -73.44)"/><path class="cls-5" d="M640,333a4.75,4.75,0,0,0-4.75-4.75H534.52c-2.32,0-4.24,2.23-4.4,5.1-.54,10.09-.78,21.2-.47,33.2.33,12.83,1.22,24.62,2.4,35.21.3,2.71,2.17,4.72,4.37,4.72l20.3-.05h0l2.16-.09h76.36a4.75,4.75,0,0,0,4.75-4.75Z" transform="translate(0.25 -73.44)"/><path class="cls-1" d="M116.48,79.89q22.39-.6,44.81-.57c6.64,0,13.8-.62,20.34.7,7.59,1.54,11.19,7.3,12.25,14.6.88,6.12.34,12.37.36,18.54,0,7.5.69,15.22-3.12,22-7.29,13-22.58,15.61-36.07,17.42-1.41.19-2,1.9-1.74,3.08,2.38,12.31,5.05,25.57,1.57,37.94-2.71,9.65-10.49,19.87-21.48,19.13l2.5,2.5c.29-11.41.33-22.86-1.44-34.16-1.72-11-5.65-19.6-11.62-28.79-1.53-2.35-.8-4.75-.62-7.59q.3-4.62.45-9.25.31-10,0-20a315.86,315.86,0,0,0-3.77-38.7c-.5-3.17-5.32-1.82-4.82,1.33a303.85,303.85,0,0,1,3.62,38.32q.28,9.54,0,19.09c-.11,3.09-.25,6.17-.45,9.25-.14,2.21-1.11,5.72-.44,7.83.59,1.9,2.73,3.48,3.84,5.09a45.18,45.18,0,0,1,3.92,6.86,64.72,64.72,0,0,1,4.72,15.67c2.09,11.54,1.94,23.4,1.64,35.09a2.55,2.55,0,0,0,2.5,2.5c11.66.78,20.7-8.53,24.85-18.64,5.82-14.19,2.68-30.25-.12-44.76l-1.75,3.08c14.69-2,30.51-5.35,38.7-19.1,4.12-6.91,4.28-14.6,4.19-22.43-.08-7.3.58-14.71-.46-22-.82-5.78-2.95-11.49-7.7-15.15-5.52-4.26-12.74-4.34-19.4-4.42-18.41-.21-36.83,0-55.23.52C113.27,75,113.26,80,116.48,79.89Z" transform="translate(0.25 -73.44)"/><path class="cls-5" d="M0,148.22A4.75,4.75,0,0,0,4.75,153H105.48c2.32,0,4.24-2.22,4.4-5.09.54-10.09.78-21.2.47-33.2-.33-12.83-1.22-24.62-2.4-35.21-.3-2.71-2.17-4.72-4.37-4.72l-20.3.05h0l-2.16.09H4.75A4.75,4.75,0,0,0,0,79.63Z" transform="translate(0.25 -73.44)"/></svg>