<svg id="圖層_1" data-name="圖層 1" xmlns="http://www.w3.org/2000/svg" viewBox="0 0 640 480"><defs><style>.cls-1{fill:#ba9bc9;}.cls-2{fill:none;stroke:#ba9bc9;stroke-miterlimit:10;}</style></defs><path class="cls-1" d="M427.17,316.72a50.66,50.66,0,0,0-32,89.94c4.54-13,12.38-22.84,21.8-27.05a20.76,20.76,0,1,1,20.41,0c9.43,4.21,17.26,14.08,21.81,27.05a50.66,50.66,0,0,0-32-89.94Z"/><path class="cls-1" d="M224.9,111.07a18.69,18.69,0,1,0-18.38,0c-9,4-16.35,13.72-20.31,26.39a57,57,0,0,0,59,0C241.25,124.79,233.87,115.08,224.9,111.07Z"/><path class="cls-1" d="M181.67,382.51a13.67,13.67,0,1,0-13.44,0c-6.57,2.93-12,10-14.86,19.31a41.75,41.75,0,0,0,43.16,0C193.63,392.55,188.24,385.44,181.67,382.51Z"/><path class="cls-1" d="M138.86,142.48A37.48,37.48,0,0,0,115.18,209c3.37-9.59,9.16-16.9,16.13-20a15.35,15.35,0,1,1,15.1,0c7,3.11,12.76,10.42,16.13,20a37.48,37.48,0,0,0-23.68-66.53Z"/><path class="cls-1" d="M453.49,108.59a13.67,13.67,0,1,0-13.45,0c-6.56,2.93-12,10-14.85,19.31a41.67,41.67,0,0,0,43.15,0C465.44,118.63,460.05,111.52,453.49,108.59Z"/><path class="cls-1" d="M124,283.12a13.67,13.67,0,1,0-13.45,0c-6.56,2.93-12,10-14.85,19.3a41.67,41.67,0,0,0,43.15,0C136,293.15,130.57,286.05,124,283.12Z"/><path class="cls-1" d="M253.19,302.32a37.47,37.47,0,0,0-23.68,66.52c3.36-9.58,9.16-16.89,16.13-20a15.35,15.35,0,1,1,15.09,0c7,3.11,12.77,10.42,16.13,20a37.47,37.47,0,0,0-23.67-66.52Z"/><path class="cls-1" d="M328.14,94.92a37.48,37.48,0,0,0-23.68,66.53c3.37-9.59,9.16-16.9,16.13-20a15.35,15.35,0,1,1,15.1,0c7,3.11,12.76,10.42,16.13,20a37.48,37.48,0,0,0-23.68-66.53Z"/><path class="cls-1" d="M522.61,209.18a18.68,18.68,0,1,0-18.38,0c-9,4-16.34,13.72-20.31,26.39a57,57,0,0,0,59,0C539,222.9,531.59,213.18,522.61,209.18Z"/><path class="cls-1" d="M214.05,242.72a13.67,13.67,0,1,0-13.45,0c-6.56,2.93-11.95,10-14.85,19.3a41.67,41.67,0,0,0,43.15,0C226,252.75,220.61,245.65,214.05,242.72Z"/><path class="cls-1" d="M522.61,302.32a26.47,26.47,0,0,0-16.72,47c2.37-6.77,6.46-11.94,11.39-14.13a10.84,10.84,0,1,1,10.66,0c4.92,2.19,9,7.36,11.39,14.13a26.47,26.47,0,0,0-16.72-47Z"/><path class="cls-1" d="M436.71,241.22a27.93,27.93,0,0,0-17.65,49.59c2.5-7.15,6.82-12.59,12-14.91a11.45,11.45,0,1,1,11.25,0c5.2,2.32,9.52,7.76,12,14.91a27.94,27.94,0,0,0-17.65-49.59Z"/><line class="cls-2" x1="236.42" y1="148.07" x2="298.21" y2="213.79"/><line class="cls-2" x1="192.69" y1="145.69" x2="174.95" y2="155.98"/><line class="cls-2" x1="148.63" y1="221.73" x2="171" y2="345.09"/><line class="cls-2" x1="122.88" y1="317.3" x2="159.82" y2="353.23"/><line class="cls-2" x1="215.71" y1="274.6" x2="228.9" y2="302.32"/><line class="cls-2" x1="228.9" y1="247.49" x2="287.59" y2="236.93"/><line class="cls-2" x1="171" y1="213.79" x2="189.59" y2="223.76"/><line class="cls-2" x1="148.63" y1="393.05" x2="104.69" y2="418.47"/><line class="cls-2" x1="95.71" y1="155.98" x2="74.86" y2="142.48"/><line class="cls-2" x1="192.69" y1="80.4" x2="171" y2="60.57"/><line class="cls-2" x1="241.44" y1="110.91" x2="287.59" y2="115.99"/><line class="cls-2" x1="328.51" y1="88.02" x2="328.51" y2="60.57"/><line class="cls-2" x1="371.59" y1="120.05" x2="425.19" y2="106.83"/><line class="cls-2" x1="346.67" y1="221.73" x2="425.19" y2="138.86"/><line class="cls-2" x1="444.28" y1="138.86" x2="444.28" y2="234.44"/><line class="cls-2" x1="468.35" y1="135.64" x2="506.31" y2="168.86"/><line class="cls-2" x1="468.34" y1="91.92" x2="508.34" y2="74.3"/><circle class="cls-1" cx="444.28" cy="236.15" r="2.58"/><line class="cls-2" x1="333.44" y1="200.38" x2="333.44" y2="171.91"/><circle class="cls-1" cx="333.44" cy="171.91" r="2.58"/><circle class="cls-1" cx="333.44" cy="200.38" r="2.58"/><line class="cls-2" x1="405.14" y1="260.62" x2="344.09" y2="242.04"/><circle class="cls-1" cx="344.09" cy="242.04" r="2.58"/><circle class="cls-1" cx="405.14" cy="260.62" r="2.58"/><circle class="cls-1" cx="346.67" cy="221.73" r="2.58"/><circle class="cls-1" cx="425.19" cy="138.86" r="2.58"/><circle class="cls-1" cx="506.31" cy="168.86" r="2.58"/><circle class="cls-1" cx="444.28" cy="141.45" r="2.58"/><circle class="cls-1" cx="468.35" cy="135.64" r="2.58"/><circle class="cls-1" cx="468.34" cy="91.92" r="2.58"/><circle class="cls-1" cx="508.34" cy="74.3" r="2.58"/><circle class="cls-1" cx="425.19" cy="106.83" r="2.58"/><circle class="cls-1" cx="371.59" cy="120.05" r="2.58"/><circle class="cls-1" cx="328.51" cy="88.02" r="2.58"/><circle class="cls-1" cx="328.14" cy="60.57" r="2.58"/><circle class="cls-1" cx="241.44" cy="110.91" r="2.58"/><circle class="cls-1" cx="287.59" cy="115.99" r="2.58"/><circle class="cls-1" cx="192.69" cy="80.4" r="2.58"/><circle class="cls-1" cx="171" cy="60.57" r="2.58"/><circle class="cls-1" cx="192.69" cy="145.69" r="2.58"/><circle class="cls-1" cx="298.21" cy="213.79" r="2.58"/><circle class="cls-1" cx="236.42" cy="148.07" r="2.58"/><circle class="cls-1" cx="174.95" cy="155.98" r="2.58"/><circle class="cls-1" cx="148.63" cy="221.73" r="2.58"/><circle class="cls-1" cx="287.59" cy="236.93" r="2.58"/><circle class="cls-1" cx="228.9" cy="247.49" r="2.58"/><circle class="cls-1" cx="189.59" cy="223.76" r="2.58"/><circle class="cls-1" cx="171" cy="213.79" r="2.58"/><circle class="cls-1" cx="95.71" cy="155.98" r="2.58"/><circle class="cls-1" cx="74.86" cy="142.48" r="2.58"/><circle class="cls-1" cx="215.71" cy="274.6" r="2.58"/><circle class="cls-1" cx="228.9" cy="302.32" r="2.58"/><circle class="cls-1" cx="171" cy="345.09" r="2.58"/><circle class="cls-1" cx="148.63" cy="393.05" r="2.58"/><circle class="cls-1" cx="104.69" cy="418.47" r="2.58"/><circle class="cls-1" cx="122.88" cy="317.3" r="2.58"/><circle class="cls-1" cx="159.82" cy="353.23" r="2.58"/><circle class="cls-1" cx="250.59" cy="376.27" r="2.58"/><circle class="cls-1" cx="200.26" cy="393.05" r="2.58"/><line class="cls-2" x1="513.42" y1="250.07" x2="473.77" y2="268.47"/><line class="cls-2" x1="522.61" y1="247.49" x2="522.61" y2="295.95"/><line class="cls-2" x1="287.59" y1="311.97" x2="300.8" y2="290.81"/><line class="cls-2" x1="295.63" y1="349.31" x2="369" y2="356.94"/><line class="cls-2" x1="436.71" y1="295.95" x2="434.45" y2="309.85"/><line class="cls-2" x1="473.77" y1="335.58" x2="491.39" y2="329.16"/><line class="cls-2" x1="200.26" y1="393.05" x2="250.59" y2="376.27"/><line class="cls-2" x1="267.32" y1="376.27" x2="287.59" y2="418.47"/><circle class="cls-1" cx="300.8" cy="290.81" r="2.58"/><circle class="cls-1" cx="287.59" cy="418.47" r="2.58"/><circle class="cls-1" cx="267.32" cy="376.27" r="2.58"/><circle class="cls-1" cx="287.59" cy="311.88" r="2.58"/><circle class="cls-1" cx="295.63" cy="349.31" r="2.58"/><circle class="cls-1" cx="369" cy="356.94" r="2.58"/><circle class="cls-1" cx="522.61" cy="295.95" r="2.58"/><circle class="cls-1" cx="522.61" cy="247.49" r="2.58"/><circle class="cls-1" cx="490.78" cy="329.16" r="2.58"/><circle class="cls-1" cx="473.77" cy="335.58" r="2.58"/><circle class="cls-1" cx="513.42" cy="250.07" r="2.58"/><circle class="cls-1" cx="473.77" cy="268.47" r="2.58"/><circle class="cls-1" cx="434.45" cy="309.85" r="2.58"/><circle class="cls-1" cx="436.71" cy="295.95" r="2.58"/><path class="cls-1" d="M314.89,207.42a1.35,1.35,0,0,0,1.18.61c2.52,0,2.52,0,2.52-2.49,0-.19,0-.37,0-.56a1,1,0,0,1,1.3-1,9,9,0,0,1,7.3,6.88,2.58,2.58,0,0,0,.41.83,25.15,25.15,0,0,1,5,12.49,37.82,37.82,0,0,1-2.07,17,42.42,42.42,0,0,0-2.15,17.46,27.1,27.1,0,0,0,4.81,13.48c.09.12.17.26.26.41A45.57,45.57,0,0,0,322,278.7a43.43,43.43,0,0,0-7.18,6.36c-.26.29-.42.46-.77.07-5.71-6.24-12.81-10.28-20.65-13.15-.67-.24-.8-.52-.63-1.17a50.93,50.93,0,0,1,11.53-21.93A38.13,38.13,0,0,0,313,233.5c.43-1.6.43-1.58-1.23-1.39a32.4,32.4,0,0,1-3.94.09,16.1,16.1,0,0,0-7.54,1.21,6,6,0,0,0-1.47.91,1,1,0,0,1-1.21.2,13.33,13.33,0,0,1-6.78-6.83c-.27-.57-.06-.9.5-1.06a12.14,12.14,0,0,0,6.93-5.74,32.21,32.21,0,0,1,10.43-10.44c.68-.43.73-.75.39-1.46-3.1-6.52-9.35-20.49-9.35-20.49S311.86,203.53,314.89,207.42Z"/><path class="cls-1" d="M280.28,272.05c10.45.09,19.55,3.78,27.65,10.22A42.37,42.37,0,0,1,314,288.1c.34.4.47.31.74,0a48.19,48.19,0,0,1,14.71-11.31c10.86-5.41,22-5.89,33.46-2,1.54.52,3,1.13,4.54,1.79.49.22.68.42.4,1-.51,1-1,2.11-1.39,3.17-.2.52-.46.54-.95.34a45.2,45.2,0,0,0-13.23-3.32A40.63,40.63,0,0,0,333,280.61a47.88,47.88,0,0,0-18,12.9c-.44.51-.65.62-1.16,0-6.87-7.79-15.25-13.11-25.47-15.27a41.81,41.81,0,0,0-23.06,1.88,15,15,0,0,0-2,.8c-.62.33-.87.11-1.09-.44-.44-1.06-.88-2.13-1.37-3.17-.24-.53-.14-.76.4-1a54.75,54.75,0,0,1,8.61-3A42.69,42.69,0,0,1,280.28,272.05Z"/><path class="cls-1" d="M332.8,268.47a28.82,28.82,0,0,1-2.88-10.87,47.25,47.25,0,0,1,2.62-18.25,33,33,0,0,0,.53-20.59,23.24,23.24,0,0,0-3.6-7c-.52-.7-.49-1.64-.92-2.4-.16-.29.13-.35.36-.29a3.72,3.72,0,0,1,1.46.73,15.3,15.3,0,0,1,4.75,7.1,39.25,39.25,0,0,1,2.2,10.6,86.1,86.1,0,0,1-.2,15.73,180.81,180.81,0,0,1-3.83,23.11C333.15,266.94,333,267.59,332.8,268.47Z"/></svg>