<svg id="圖層_2" data-name="圖層 2" xmlns="http://www.w3.org/2000/svg" viewBox="0 0 858.7 298.57"><defs><style>.cls-1,.cls-2{fill:#8242b5;}.cls-2{font-size:60px;font-family:MicrosoftJhengHeiBold, Microsoft JhengHei;}</style></defs><path class="cls-1" d="M1050,323.78s18.1-28.78-31.61-33.56c-1.23-.49,2.23-3.7,2.23-3.7h0c-17.13,2-16.48,15.13-16.14,17.93.28,0,.54-.06.82-.06a22.47,22.47,0,0,1,12.34,3.27,20,20,0,0,1,4.71,4.18c3.14,3.44,5.68,8.55,6.49,16.23,2.68,25.42,14.66,53.07,42.07,11.53C1071,339.6,1054.5,349.4,1050,323.78Z" transform="translate(-212.25 -170.15)"/><path class="cls-1" d="M402.72,374V331.31q0-7.24-2.17-10.41t-7.07-3.17a7.63,7.63,0,0,0-6.56,3.28,14,14,0,0,0-2.37,8.4V374H352V295.82h32.52V308h.31a27.45,27.45,0,0,1,10.46-10.41,28.53,28.53,0,0,1,14.28-3.71q25.65,0,25.65,32.37V374Z" transform="translate(-212.25 -170.15)"/><path class="cls-1" d="M483,276.06s-.36,7-3.69,9.84-7.73,4.27-13.17,4.27-9.63-1.48-13-4.43-3.55-9.46-3.55-9.46l18.23,8.86ZM449.91,374V295.82h32.52V374Z" transform="translate(-212.25 -170.15)"/><path class="cls-1" d="M582.52,371q-13.59,4.89-31.38,4.89-17.49,0-30.16-6.69a45.72,45.72,0,0,1-19.35-19q-6.69-12.33-6.68-28.45,0-17.32,7.48-30.84a51.87,51.87,0,0,1,21.15-20.88q13.67-7.37,31.46-7.36a109.37,109.37,0,0,1,27.48,3.43v30.46a38.82,38.82,0,0,0-10.92-4.27,54.42,54.42,0,0,0-12.82-1.53q-13.46,0-21.19,7.71t-7.75,20.92q0,13.13,7.75,20.72t20.73,7.6a53.77,53.77,0,0,0,24.2-6.1Z" transform="translate(-212.25 -170.15)"/><path class="cls-1" d="M683.53,333.53q0,19.77-11.95,31.07t-33.4,11.31q-21.3,0-33.18-11t-11.87-30.42q0-12.45,5.58-21.61a36.15,36.15,0,0,1,15.88-14,54.76,54.76,0,0,1,23.74-4.89q13.89,0,24.08,5.12a37,37,0,0,1,15.66,14.2A38.62,38.62,0,0,1,683.53,333.53Zm-33,.16q0-16-12.22-16t-12.22,16.72q0,17.63,12.37,17.64Q650.54,352.09,650.55,333.69Z" transform="translate(-212.25 -170.15)"/><path class="cls-1" d="M745.44,374V361.94h-.3a43,43,0,0,1-7.29,8.16,27.94,27.94,0,0,1-7.33,4.2,25.88,25.88,0,0,1-9.51,1.61q-12.81,0-19.54-8.33T694.76,343V295.82h32.51v44.74q0,11.54,8.63,11.53,4.74,0,7.14-3.14c1.61-2.08,2.4-5,2.4-8.85V295.82H778V374Z" transform="translate(-212.25 -170.15)"/><path class="cls-1" d="M852.34,323.69a24.79,24.79,0,0,0-5-1.53,25.06,25.06,0,0,0-5.19-.69q-16.11,0-16.12,18.63V374H793.55V295.82h32.52v13.74h.31a24.38,24.38,0,0,1,8.47-11.26,21.79,21.79,0,0,1,12.83-3.86,11.07,11.07,0,0,1,4.66.92Z" transform="translate(-212.25 -170.15)"/><path class="cls-1" d="M925.25,348q0,13.27-10.11,20.58t-28.21,7.29a97,97,0,0,1-13-1.08,79.76,79.76,0,0,1-12.64-2.59V349.41q14.43,6.42,24.12,6.42t9.55-5a3.91,3.91,0,0,0-2.21-3.39c-1.48-.9-5.35-2.38-11.61-4.47q-10.39-3.28-15.12-8.71t-4.73-14.12a22.54,22.54,0,0,1,9.66-19.2q9.66-7.07,27.14-7.06a86.14,86.14,0,0,1,21.69,3V318.8a66.25,66.25,0,0,0-10.55-3.44A42.78,42.78,0,0,0,899.6,314a10.39,10.39,0,0,0-5.12,1.07,3.28,3.28,0,0,0-1.91,3,4.14,4.14,0,0,0,2.07,3.59q2.05,1.38,8.24,3.29,12,3.51,17.18,9T925.25,348Z" transform="translate(-212.25 -170.15)"/><path class="cls-1" d="M965.26,344.14a11,11,0,0,0,5.8,7.9q5,2.88,13.13,2.87a54.16,54.16,0,0,0,21.54-4.35v20.61q-11.85,4.72-28.72,4.74-20.46,0-31.83-10.46T933.8,336.66a47.49,47.49,0,0,1,5-22.21,35.89,35.89,0,0,1,14.82-15.08,43.73,43.73,0,0,1,21.64-5.46q12.15,0,20.77,4.73a31.62,31.62,0,0,1,13.09,13.28,42.6,42.6,0,0,1,4.47,20v12.21Zm19.55-17q0-13.51-9.7-13.52a8.22,8.22,0,0,0-6.8,3.71,18.63,18.63,0,0,0-3.21,9.81Z" transform="translate(-212.25 -170.15)"/><g id="圖層_6" data-name="圖層 6"><rect class="cls-1" x="436.5" y="268.57" width="1.65" height="16.84" transform="translate(-129.61 -270.22) rotate(14.4)"/><polygon class="cls-1" points="222.03 121.52 219.09 120.77 221.96 115.91 223.38 116.28 222.03 121.52"/></g><polygon class="cls-1" points="282.09 97.25 255.36 112.97 226.37 98.48 253.09 82.76 282.09 97.25"/><path class="cls-1" d="M301.48,264.52v62.06q0,10.47-3.85,15.81t-11.26,5.34A12.86,12.86,0,0,1,275.11,342q-3.93-5.69-3.94-16.22v-61.3h0c.74-4.39,1.55-8.85,2.26-11.93,1.93-8.32,5.52-30.81-6.17-46.4a19.35,19.35,0,0,0-1.7-1.3c-.54-5.55-5.71-10-12-10h0v6.91a18.8,18.8,0,0,0-4.25.94L224.5,170.15,240.24,205s-10.87,5.79-14.94,14.4-13.05,12-13.05,12,.91,7.34,10.6,12.5c0,0,3.35-3.8,11.87-4.35a28.8,28.8,0,0,1,5.47,0,22.36,22.36,0,0,0,3.09,0,18.74,18.74,0,0,0,3.22-.52s-6.82,35.58-7.56,42.95-1.42,29.5-.9,42.65q0,25.72,12.1,38.52t35.46,12.79q25,0,37.07-12.79t12-39.13V264.52Z" transform="translate(-212.25 -170.15)"/><path class="cls-1" d="M276.4,247.41c-6,30.26.92,49.83.92,49.83s21.9-82.55-10.33-96.67l.9,3.74S282.47,216.66,276.4,247.41Z" transform="translate(-212.25 -170.15)"/><text class="cls-2" transform="translate(187.75 282.9)">選課資訊交流平台</text></svg>