<svg width="1024" height="1024" xmlns="http://www.w3.org/2000/svg" xml:space="preserve" version="1.1">
    <g>
        <title>Layer 1</title>
        <g stroke="null" id="svg_1">
            <g stroke="null" id="svg_2">
                <path stroke="null" id="svg_3" fill="#8141B3" d="m0.09972,1024.43142c0,-339.91338 0,-679.82677 -0.09972,-1019.74015c0,-3.83942 0.84762,-4.68708 4.68684,-4.68708c339.94551,0.09973 679.89102,0.09973 1019.88638,0.09973c0.94734,1.74519 0.4986,3.68983 0.4986,5.53475c0,337.71943 0,675.389 0,1013.10843c0,7.03063 0.7479,6.23283 -6.28236,6.23283c-337.75167,0 -675.45348,0 -1013.20514,0c-1.84482,-0.09973 -3.7395,0.3989 -5.4846,-0.54849z" class="st0"/>
                <path stroke="null" id="svg_4" fill="#FEFEFE" d="m0.09972,1024.43142c339.04803,0 678.14592,0 1017.19394,0c7.27956,0 7.27956,0 7.27956,-7.27994c0,-339.01586 0,-678.03171 0,-1017.09743c0.29916,0.19945 1.04706,-0.49863 1.04706,0.49863c-0.04986,1.34629 0,2.74244 0,4.08873c0,338.71668 0,677.43336 0.09972,1016.15004c0,3.83942 -0.84762,4.68708 -4.68684,4.68708c-338.74887,-0.09973 -677.49774,-0.09973 -1016.29646,-0.14959c-1.54566,0.04986 -3.4902,1.24657 -4.63698,-0.89753z" class="st1"/>
                <path stroke="null" id="svg_5" fill="#FEFEFE" d="m413.09013,178.21314c12.16584,15.35768 24.4314,30.6655 36.54738,46.07305c19.79442,25.23048 39.58884,50.51082 59.28354,75.84102c2.04426,2.64272 4.2381,3.93915 7.67844,3.93915c16.35408,0 16.35408,0.09973 16.35408,-16.20535c0,-1.1967 -0.04986,-2.39341 0.04986,-3.59011c0.4986,-4.83667 3.7395,-7.3298 8.42634,-6.28269c24.53112,5.63447 41.08464,19.84532 47.46672,44.72676c0.54846,2.04437 1.39608,3.68983 2.64258,5.38516c18.39834,24.03378 28.76922,51.30862 32.409,81.17632c4.63698,37.99531 -1.09692,74.69418 -13.41234,110.69498c-12.51486,36.74874 -17.35128,74.69418 -14.01066,113.43743c2.7423,31.86221 12.81402,61.28114 31.26222,87.6086c0.59832,0.7978 1.09692,1.69533 1.69524,2.69258c-26.9244,9.52376 -51.45552,23.08639 -74.34127,39.59091c-16.9524,12.21634 -32.75802,25.7291 -46.66896,41.3361c-1.69524,1.89478 -2.69244,2.99176 -4.986,0.44876c-37.09584,-40.48844 -83.26621,-66.76603 -134.22313,-85.41464c-4.33782,-1.5956 -5.18544,-3.39066 -4.08852,-7.62898c13.41234,-53.6023 38.04318,-101.12136 74.93959,-142.50733c25.9272,-29.0699 45.82134,-61.92936 56.19222,-99.92466c2.84202,-10.42128 2.79216,-10.2717 -7.9776,-9.07499c-8.4762,0.94739 -17.05212,0.74794 -25.57818,0.59835c-16.80282,-0.29918 -33.45606,0.34904 -49.01238,7.87829c-3.39048,1.64547 -6.78096,3.34079 -9.52326,5.93365c-2.44314,2.29368 -4.83642,2.69258 -7.87788,1.29643c-20.34288,-9.17472 -34.75242,-24.23323 -44.07624,-44.37772c-1.7451,-3.7397 -0.39888,-5.88379 3.2409,-6.9309c20.34288,-5.98351 34.35354,-19.89518 45.07344,-37.29723c17.25156,-28.02278 40.03758,-50.41109 67.75975,-67.86301c4.43754,-2.79231 4.7367,-4.83667 2.54286,-9.4739c-20.14344,-42.33335 -39.93786,-84.81629 -59.832,-127.29923c-0.44874,-0.89753 -0.69804,-1.89478 -1.09692,-2.84217c-0.79776,-1.04711 -0.89748,-2.29368 0.14958,-2.99176c1.09692,-0.64821 2.09412,0.34904 2.9916,1.04711z" class="st1"/>
                <path stroke="null" id="svg_6" fill="#FEFEFE" d="m284.05244,720.11994c67.85947,0.54849 127.04329,24.5324 179.64559,66.41699c14.30982,11.41854 27.6723,23.83433 39.43926,37.89558c2.19384,2.59286 3.04146,1.9945 4.83642,-0.04986c27.07398,-30.71537 58.98438,-55.24777 95.58163,-73.49748c70.60177,-35.203 143.19793,-38.29448 217.43948,-12.86455c10.02186,3.44052 19.79442,7.37967 29.46726,11.66785c3.19104,1.44602 4.43754,2.69258 2.64258,6.38241c-3.34062,6.73145 -6.18264,13.66235 -9.02466,20.59326c-1.34622,3.34079 -2.9916,3.49038 -6.18264,2.19395c-27.62244,-11.31881 -56.24208,-18.94779 -85.95865,-21.59051c-43.17876,-3.83942 -85.11103,1.9945 -125.29819,18.49903c-45.6219,18.69848 -84.66229,46.77112 -117.17101,83.81904c-2.89188,3.29093 -4.2381,3.98901 -7.57872,0.24931c-44.6247,-50.61054 -99.07183,-85.21519 -165.48535,-99.22659c-51.00678,-10.77032 -100.96651,-5.18571 -149.82931,12.21634c-4.4874,1.5956 -9.12438,2.94189 -13.31262,5.18571c-4.03866,2.14409 -5.68404,0.69808 -7.12998,-2.84217c-2.84202,-6.9309 -5.7339,-13.8618 -8.87508,-20.64312c-1.59552,-3.39066 -0.89748,-4.88654 2.59272,-6.38241c18.1989,-7.82843 36.69696,-14.60974 55.94292,-19.34669c22.38714,-5.58461 45.1233,-8.77582 68.25835,-8.67609z" class="st1"/>
                <path stroke="null" id="svg_7" fill="#FEFEFE" d="m625.29431,696.8341c-11.36808,-23.23597 -17.00226,-46.42209 -18.6975,-70.60545c-2.84202,-40.73775 4.28796,-79.97962 17.05212,-118.62314c14.50926,-44.02868 17.451,-88.8053 3.44034,-133.78137c-5.18544,-16.55439 -12.9636,-31.86221 -23.38434,-45.77387c-3.39048,-4.5375 -3.19104,-10.6706 -5.9832,-15.607c-1.04706,-1.84492 0.79776,-2.24382 2.29356,-1.89478c3.54006,0.84766 6.68124,2.49313 9.52326,4.73695c15.4566,11.91716 24.1821,28.42169 30.86334,46.17277c8.42634,22.18886 12.2157,45.32511 14.30982,68.86026c3.04146,34.10602 1.84482,68.21204 -1.29636,102.21834c-4.68684,50.66041 -13.7115,100.62274 -24.93,150.18617c-0.89748,4.18846 -1.84482,8.42678 -3.19104,14.11112z" class="st1"/>
                <path stroke="null" id="svg_8" fill="#ECE3F4" d="m413.09013,178.21314c-1.64538,-0.19945 -2.9916,0 -3.19104,2.04437c-2.2437,-3.29093 -3.68964,-6.9309 -4.78656,-10.87005c3.58992,2.19395 5.9832,5.3353 7.9776,8.82568z" class="st2"/>
            </g>
        </g>
    </g>
</svg>